<?xml version="1.0" encoding="UTF-8"?>
<svg xmlns="http://www.w3.org/2000/svg" viewBox="0 0 2000 1400">
  <g id="artboard-bounds">
    <rect width="2000" height="1400" fill="none"/>
  </g>
  <g id="amygdala">
    <path d="M1016,785s-19-22-51-1-43,35-17,74c37,17,72-13,73-31s6-21-5-42Z" fill="#c17573"/>
  </g>
  <g id="hippocampus">
    <path d="M1022,793s12-23,72-26c34.32-1.72,47-38,87-64s19-88,19-88c0,0-44-59-67-62s45-22,61-6,52,61,48,107-56,102-73,109-27,22-29,28-15,22-43,24c-26.24,1.87-33,10-33,10,0,0-31,36-42,6s0-38,0-38Z" fill="#738ec5"/>
  </g>
  <g id="hypothalamus">
    <path d="M761,630s8,35,24,55,9,55-1,71,21,17,31-34,2-84,13-100,3-36-33-30-34,38-34,38Z" fill="#f6b283"/>
  </g>
  <g id="thalamus">
    <path d="M814,681s-27-61,85-79,73-18,124-38,82-41,117-13,67,148-28,169-127,39-169,30l-42-9s-101-37-92-62" fill="#6280b2"/>
  </g>
  <g id="brainstem">
    <path d="M920,878s-7,22,2,27,24,17,24,17c0,0-4,12,3,28-5,18-10,36,12,64,17,35,25,45,59,72s12,16,12,16c0,0,8,48,51,89,33,34,76,166,76,166,0,0,3,7,36,7s51-26,51-26l-43-175-82-219s58-49,62-88,82-85,32-140-295,162-295,162Z" fill="#bfaf98"/>
  </g>
  <g id="cerebellum">
    <path d="M1266,772s43-2,75,24,71,54,98,59,81,60,86,65,50,49,38,97-51,106-77,115-56,43-159,27c-75,57-135-3-135-3,0,0-28-29-28-42s-33-28-33-44c-27-8-33-27-33-27,0,0-2-12,11.16-42.58-9.81-9.64-17.78-23.79-18.16-44.42-1-55,36-92,65-116s30-71,110-68Z" fill="#c77e75"/>
  </g>
  <g id="occipital">
    <path d="M1581,416c-64.16-31.45,2,84-17,104s-48,46-97,17c0,0-45,78-60,90,0,0,3,23-26,53s-12,43-12,43c0,0-6,34,10,37,7,25-6,45,41,55s69,40,78,46,35,63,37,71,16,29,43,28,91-31,119-113c15-67-1-110-1-110,0,0,22-95-16-141-10-66-41-81-41-81,0,0-7-74-58-99Z" fill="#88ae96"/>
  </g>
  <g id="temporal">
    <path d="M600,845s-31,49,2,85,63,45,63,45c0,0,69,40,121,35,30,5,40,22,108,6s180-73,180-73c0,0,84-127,134-157s133,8,140,11-42-94-16-152-147-112-147-112c0,0-144-17-249,99s-184,79-336,213Z" fill="#7eabc0"/>
  </g>
  <g id="parietal">
    <path d="M947,96c14-2,80-17,164,12" fill="#c5888a"/>
    <path d="M1007,397c-22.06-52.4-15-106,9-134s26-46,26-46c0,0,18-39-7-65,15-52,69-45,69-45,0,0,72-10,110,11s69,29,69,29c0,0,142,41,152,86,0,0,51,35,59,60,0,0,79,52,87,123s2,84-17,104-48,46-97,17c0,0-45,78-60,90s-43.62-55.21-175-84c-73-16-102-5-102-5,0,0-67-8-123-141Z" fill="#e0d293"/>
  </g>
  <g id="frontal">
    <path d="M1104,107s-54-7-69,45c25,26,7,65,7,65,0,0-2,18-26,46s-32,82-9,134-6,113,80,133l31,8s-24,11-42,20-31,0-55,9-36,29-54,36-6-9-79,4-108,34-114,44-25,38-57,60-96,85-84,130c0,0-5,7-58,6s-10,8-78,0-98-36-98-36c0,0-75-26-92-115s-13-93-6-101-10,3-17-40,8-39,28-88,4-49,57-112,83-119,174-158c56-37,54-44,190-81,58-6,73-1,73-1,0,0,27-14,78-17s49,0,63-2,80-17,164,12" fill="#c5888a"/>
  </g>
  <g id="Prefrontal">
    <path d="M633,841s-5,7-58,6-10,8-78,0-98-36-98-36c0,0-75-26-92-115s-13-93-6-101-10,3-17-40,8-39,28-88,4-49,57-112c16.66-19.8,6.52-11.02,45.76-57.01s131.24-32.99,204.24,43.01,81,141,77,166,16,191-4,223c-31,30-71,66-59,111Z" fill="#813435"/>
  </g>
</svg>